<?xml version="1.0" encoding="UTF-8" standalone="no"?>
<svg
   id="Layer_1"
   data-name="Layer 1"
   viewBox="0 0 611.86737 181.46156"
   version="1.1"
   sodipodi:docname="clic.svg"
   width="611.86737"
   height="181.46156"
   inkscape:version="1.3.2 (091e20ef0f, 2023-11-25)"
   inkscape:export-filename="../b62788a1/clic_logo.png"
   inkscape:export-xdpi="195.183"
   inkscape:export-ydpi="195.183"
   xmlns:inkscape="http://www.inkscape.org/namespaces/inkscape"
   xmlns:sodipodi="http://sodipodi.sourceforge.net/DTD/sodipodi-0.dtd"
   xmlns="http://www.w3.org/2000/svg"
   xmlns:svg="http://www.w3.org/2000/svg"
   xmlns:rdf="http://www.w3.org/1999/02/22-rdf-syntax-ns#"
   xmlns:cc="http://creativecommons.org/ns#"
   xmlns:dc="http://purl.org/dc/elements/1.1/">
  <metadata
     id="metadata137">
    <rdf:RDF>
      <cc:Work
         rdf:about="">
        <dc:format>image/svg+xml</dc:format>
        <dc:type
           rdf:resource="http://purl.org/dc/dcmitype/StillImage" />
        <dc:title>clic_color_info</dc:title>
      </cc:Work>
    </rdf:RDF>
  </metadata>
  <sodipodi:namedview
     pagecolor="#ffffff"
     bordercolor="#666666"
     borderopacity="1"
     objecttolerance="10"
     gridtolerance="10"
     guidetolerance="10"
     inkscape:pageopacity="0"
     inkscape:pageshadow="2"
     inkscape:window-width="1440"
     inkscape:window-height="891"
     id="namedview135"
     showgrid="false"
     inkscape:zoom="0.68911405"
     inkscape:cx="298.93455"
     inkscape:cy="224.20091"
     inkscape:window-x="0"
     inkscape:window-y="32"
     inkscape:window-maximized="1"
     inkscape:current-layer="text581"
     inkscape:showpageshadow="2"
     inkscape:pagecheckerboard="0"
     inkscape:deskcolor="#d1d1d1" />
  <defs
     id="defs4">
    <rect
       x="0"
       y="297.12427"
       width="611.86737"
       height="69.13105"
       id="rect583" />
    <style
       id="style2">.cls-1{fill:#c7371b;}.cls-2{fill:#273184;}</style>
  </defs>
  <title
     id="title6">clic_color_info</title>
  <path
     class="cls-2"
     d="m 351.19645,32.79156 a 32.78,32.78 0 1 0 -41.88,31.48 v 106.69 a 9.11,9.11 0 1 0 18.21,0 v -106.69 a 32.84,32.84 0 0 0 23.67,-31.48 z m -32.78,16.22 a 16.22,16.22 0 1 1 16.22,-16.22 16.23,16.23 0 0 1 -16.22,16.22 z"
     id="path112"
     inkscape:connector-curvature="0"
     style="fill:#273184" />
  <path
     class="cls-2"
     d="m 84.716446,181.46156 a 84.74,84.74 0 1 1 56.000004,-148.36 9.193238,9.193238 0 1 1 -12.15,13.8 66.35,66.35 0 1 0 0.14,99.52 9.19,9.19 0 0 1 12.12,13.77 84.65,84.65 0 0 1 -56.110004,21.27 z"
     id="path114"
     inkscape:connector-curvature="0"
     style="fill:#273184" />
  <path
     class="cls-2"
     d="m 467.01645,181.46156 a 84.74,84.74 0 1 1 56,-148.36 9.2064665,9.2064665 0 1 1 -12.19,13.8 66.35,66.35 0 1 0 0.14,99.52 9.1919163,9.1919163 0 0 1 12.18,13.77 84.65,84.65 0 0 1 -56.13,21.27 z"
     id="path116"
     inkscape:connector-curvature="0"
     style="fill:#273184" />
  <path
     class="cls-2"
     d="m 263.15645,181.46156 c -57,0 -84.74,-27.72 -84.74,-84.74 v -74.19 a 9.2,9.2 0 1 1 18.39,0 v 74.19 c 0,47.13 19.22,66.35 66.35,66.35 a 9.2,9.2 0 0 1 0,18.39 z"
     id="path118"
     inkscape:connector-curvature="0"
     style="fill:#273184" />
  <path
     class="cls-1"
     d="m 582.36645,83.96156 a 1.68,1.68 0 0 0 -1.1,0.14 l -44.21,22.48 a 1.66,1.66 0 0 0 -0.88,1.77 1.57,1.57 0 0 0 0.16,0.46 1.67,1.67 0 0 0 1.28,0.89 l 16.5,1.95 a 139.49,139.49 0 0 1 -19.22,20.31 6.41,6.41 0 1 0 8.2,9.85 149.14,149.14 0 0 0 21,-22.14 l 6.38,12.55 a 1.65,1.65 0 0 0 3.09,-0.39 l 10,-45.91 a 1.65,1.65 0 0 0 -1.2,-1.96 z"
     id="path120"
     inkscape:connector-curvature="0"
     style="fill:#c7371b" />
  <path
     class="cls-1"
     d="m 607.18645,67.24156 a 2,2 0 0 0 -2.8,-0.54 l -10,6.76 a 2.0177339,2.0177339 0 0 0 2.25,3.35 l 10.06,-6.76 a 2,2 0 0 0 0.49,-2.81 z"
     id="path122"
     inkscape:connector-curvature="0"
     style="fill:#c7371b" />
  <path
     class="cls-1"
     d="m 574.70645,69.62156 -6.76,-10 a 2.0218865,2.0218865 0 0 0 -3.36,2.25 l 6.77,10.06 a 2.0205259,2.0205259 0 1 0 3.35,-2.26 z"
     id="path124"
     inkscape:connector-curvature="0"
     style="fill:#c7371b" />
  <path
     class="cls-1"
     d="m 599.51645,106.49156 -6.77,-10.05 a 2.0177339,2.0177339 0 0 0 -3.35,2.25 l 6.77,10.06 a 2.0205259,2.0205259 0 0 0 3.35,-2.26 z"
     id="path126"
     inkscape:connector-curvature="0"
     style="fill:#c7371b" />
  <path
     class="cls-1"
     d="m 587.13645,68.69156 2.32,-11.9 a 2.0367192,2.0367192 0 1 0 -4,-0.77 l -2.28,11.94 a 2,2 0 0 0 0.3,1.52 2,2 0 0 0 1.29,0.85 2,2 0 0 0 2.37,-1.64 z"
     id="path128"
     inkscape:connector-curvature="0"
     style="fill:#c7371b" />
  <path
     class="cls-1"
     d="m 568.17645,81.45156 a 2,2 0 0 0 -1.6,-2.37 l -11.89,-2.33 a 2.0376702,2.0376702 0 0 0 -0.78,4 l 11.9,2.33 a 2,2 0 0 0 2.37,-1.63 z"
     id="path130"
     inkscape:connector-curvature="0"
     style="fill:#c7371b" />
  <path
     class="cls-1"
     d="m 611.82645,89.96156 a 2,2 0 0 0 -1.6,-2.37 l -11.89,-2.33 a 2.0367192,2.0367192 0 0 0 -0.77,4 l 11.89,2.33 a 2,2 0 0 0 2.37,-1.63 z"
     id="path132"
     inkscape:connector-curvature="0"
     style="fill:#c7371b" />
  <g
     aria-label="ASSOCIATION DES ÉTUDIANT·E·S EN"
     transform="matrix(0.99254579,0,0,1,1.126447,-84.195792)"
     id="text581"
     style="font-size:26.6667px;line-height:1.25;letter-spacing:3.84px;word-spacing:0px;white-space:pre;shape-inside:url(#rect583);display:inline;fill:#273184;stroke-width:1.00375" />
</svg>
