<?xml version="1.0" encoding="UTF-8" standalone="no"?>
<!-- Generator: Adobe Illustrator 27.5.0, SVG Export Plug-In . SVG Version: 6.00 Build 0)  -->

<svg
   version="1.1"
   x="0px"
   y="0px"
   viewBox="0 0 861.77283 606.22498"
   xml:space="preserve"
   id="svg4"
   sodipodi:docname="crown.svg"
   width="861.77283"
   height="606.22498"
   inkscape:version="1.3.2 (091e20ef0f, 2023-11-25)"
   xmlns:inkscape="http://www.inkscape.org/namespaces/inkscape"
   xmlns:sodipodi="http://sodipodi.sourceforge.net/DTD/sodipodi-0.dtd"
   xmlns="http://www.w3.org/2000/svg"
   xmlns:svg="http://www.w3.org/2000/svg"><defs
   id="defs4" /><sodipodi:namedview
   id="namedview4"
   pagecolor="#ffffff"
   bordercolor="#000000"
   borderopacity="0.25"
   inkscape:showpageshadow="2"
   inkscape:pageopacity="0.0"
   inkscape:pagecheckerboard="0"
   inkscape:deskcolor="#d1d1d1"
   inkscape:zoom="0.57545454"
   inkscape:cx="409.24171"
   inkscape:cy="412.71722"
   inkscape:window-width="1440"
   inkscape:window-height="891"
   inkscape:window-x="0"
   inkscape:window-y="32"
   inkscape:window-maximized="1"
   inkscape:current-layer="Objects" />

<g
   id="Objects"
   transform="translate(-185.90071,-354.451)">
	<path
   d="M 867.197,960.676 H 366.38 c -5.172,0 -9.839,-3.099 -11.847,-7.865 L 186.909,554.831 c -2.019,-4.793 -0.95,-10.33 2.706,-14.028 3.658,-3.698 9.182,-4.829 13.996,-2.864 l 270.857,110.514 130.623,-286.48 c 2.089,-4.582 6.661,-7.522 11.696,-7.522 5.035,0 9.607,2.94 11.696,7.522 l 130.623,286.48 270.857,-110.514 c 4.817,-1.966 10.341,-0.834 13.996,2.864 3.657,3.698 4.725,9.235 2.706,14.028 l -167.621,397.98 c -2.007,4.765 -6.675,7.865 -11.847,7.865 z"
   id="path1"
   sodipodi:nodetypes="ssccccccsccccccs" />
	
	
	
</g>
</svg>
